# xmcd
#
# Track frame offsets:
#	150
#	13187
#	28197
#	39120
#	52489
#	68182
#	81932
#	101547
#	118902
#	136600
#	153700
#	168737
#	182432
#	200607
#
# Disc length: 2885 seconds
#
# Revision: 2
# Processed by: cddbd v1.4PL0 Copyright (c) Steve Scherf et al.
# Submitted via: audiograbber 1.82.00
#
DISCID=c50b430e
DTITLE=Various Artist - Hot Hits Country Vol. 18
DYEAR=1994
DGENRE=Country
TTITLE0=Pam Tillis - Mi Vida Loca (My Crazy Life)
TTITLE1=Martina McBride - Heart Trouble
TTITLE2=Tracy Byrd - The First Step
TTITLE3=Chely Wright - Till I Was Loved By You
TTITLE4=Rhett Akins - What They're Talking About
TTITLE5=Ricky Lynn Gregg - After The Fire Is Gone
TTITLE6=Alan Jackson - Gone Country
TTITLE7=Reba McEntire - Till You Love Me
TTITLE8=Trisha Yearwood - It Wasn't His Child
TTITLE9=Aaron Tippin - I Got It Honest
TTITLE10=Brooks and Dunn - I'll Never Forgive My Heart
TTITLE11=Kathy Mattea - Maybe She's Human
TTITLE12=John Berry - You And Only You
TTITLE13=Diamond Rio - Night Is Fallin In My Heart
EXTD=
EXTT0=
EXTT1=
EXTT2=
EXTT3=
EXTT4=
EXTT5=
EXTT6=
EXTT7=
EXTT8=
EXTT9=
EXTT10=
EXTT11=
EXTT12=
EXTT13=
PLAYORDER=
